<?xml version="1.0" encoding="UTF-8"?> <!-- Generator: Adobe Illustrator 20.1.0, SVG Export Plug-In . SVG Version: 6.00 Build 0) --> <svg xmlns="http://www.w3.org/2000/svg" xmlns:xlink="http://www.w3.org/1999/xlink" version="1.1" id="Слой_1" x="0px" y="0px" viewBox="0 0 64 64" style="enable-background:new 0 0 64 64;" xml:space="preserve"> <style type="text/css"> .st0{fill:#232738;} </style> <g> <g> <g> <path class="st0" d="M32,27.2c-2.6,0-4.8,2.1-4.8,4.8s2.1,4.8,4.8,4.8s4.8-2.1,4.8-4.8S34.6,27.2,32,27.2z M32,34.9 c-1.6,0-2.9-1.3-2.9-2.9c0-1.6,1.3-2.9,2.9-2.9s2.9,1.3,2.9,2.9C34.9,33.6,33.6,34.9,32,34.9z"></path> <path class="st0" d="M52.9,25.3H37.4c-0.3-0.2-0.6-0.4-0.9-0.6c2.5-2,4.1-5,4.1-8.2v-14h-6.7c-4.7,0-8.6,3.8-8.6,8.6v15.6 c-0.2,0.3-0.4,0.6-0.6,0.9c-2-2.5-5-4.1-8.2-4.1h-14v6.7c0,4.7,3.8,8.6,8.6,8.6h15.6c0.3,0.2,0.6,0.4,0.9,0.6 c-2.5,2-4.1,5-4.1,8.3v14h6.7c4.7,0,8.6-3.8,8.6-8.6V37.4c0.2-0.3,0.4-0.6,0.6-0.9c2,2.5,5,4.1,8.2,4.1h14v-6.7 C61.5,29.2,57.7,25.3,52.9,25.3z M27.2,11.1c0-3.7,3-6.7,6.7-6.7h4.8v12.1c0,3-1.6,5.8-4.2,7.3c-0.8-0.2-1.6-0.4-2.5-0.4 c-0.3,0-0.6,0-1,0.1v-5.8c0-1.5,0.7-2.9,1.9-3.8l1.5-1.1l-1.1-1.5l-1.5,1.1c-1.7,1.3-2.7,3.2-2.7,5.3v6.2 c-0.7,0.2-1.3,0.6-1.9,0.9V11.1z M11.1,36.8c-3.7,0-6.7-3-6.7-6.7v-4.8h12.1c3,0,5.8,1.6,7.3,4.2c-0.2,0.8-0.4,1.6-0.4,2.5 c0,0.3,0,0.6,0.1,1h-5.8c-1.5,0-2.9-0.7-3.8-1.9l-1.1-1.5l-1.5,1.1l1.1,1.5c1.3,1.7,3.2,2.7,5.3,2.7h6.2c0.2,0.7,0.6,1.3,0.9,1.9 H11.1z M36.8,52.9c0,3.7-3,6.7-6.7,6.7h-4.8V47.5c0-3,1.6-5.8,4.2-7.3c0.8,0.2,1.6,0.4,2.5,0.4c0.3,0,0.6,0,1-0.1v5.8 c0,1.5-0.7,2.9-1.9,3.8l-1.5,1.1l1.1,1.5l1.5-1.1c1.7-1.3,2.7-3.2,2.7-5.3v-6.2c0.7-0.2,1.3-0.6,1.9-0.9V52.9z M32,38.7 c-3.7,0-6.7-3-6.7-6.7c0-3.7,3-6.7,6.7-6.7s6.7,3,6.7,6.7C38.7,35.7,35.7,38.7,32,38.7z M59.6,38.7H47.5c-3,0-5.8-1.6-7.3-4.2 c0.2-0.8,0.4-1.6,0.4-2.5c0-0.3,0-0.6-0.1-1h5.8c1.5,0,2.9,0.7,3.8,1.9l1.1,1.5l1.5-1.1l-1.1-1.5c-1.3-1.7-3.2-2.7-5.3-2.7h-6.2 c-0.2-0.7-0.6-1.3-0.9-1.9h13.8c3.7,0,6.7,3,6.7,6.7V38.7z"></path> <path class="st0" d="M55,18.5l1.6-1c-3.2-5.4-8-9.6-13.8-12l-0.7,1.8C47.5,9.5,52,13.5,55,18.5z"></path> <path class="st0" d="M56.7,21.9l1.8-0.7c-0.3-0.6-0.5-1.2-0.8-1.8l-1.7,0.8C56.2,20.8,56.4,21.3,56.7,21.9z"></path> <path class="st0" d="M49.3,20.2l1.6-1.1c-2-3-4.8-5.4-7.9-7.1L42,13.6C44.9,15.2,47.4,17.5,49.3,20.2z"></path> <path class="st0" d="M51.3,23.8l1.8-0.7c-0.3-0.7-0.6-1.3-1-2L50.4,22C50.7,22.6,51,23.2,51.3,23.8z"></path> <path class="st0" d="M21,7.7L20.2,6C13.5,9,8.4,14.4,5.6,21.2l1.8,0.7C9.9,15.6,14.8,10.6,21,7.7z"></path> <path class="st0" d="M23.7,6.7l-0.6-1.8c-0.5,0.2-1,0.4-1.6,0.6l0.7,1.8C22.8,7,23.2,6.8,23.7,6.7z"></path> <path class="st0" d="M11.9,21.1l1.7,0.9c1.6-2.9,3.8-5.4,6.6-7.3l-1.1-1.6C16.1,15.2,13.7,17.9,11.9,21.1z"></path> <path class="st0" d="M10.9,48.2l-1.5,1.2c3.1,4,7.2,7.1,11.8,9l0.7-1.8C17.6,54.9,13.7,52,10.9,48.2z"></path> <path class="st0" d="M8.7,44.9L7,45.8c0.4,0.7,0.8,1.3,1.2,2l1.6-1.1C9.4,46.1,9,45.5,8.7,44.9z"></path> <path class="st0" d="M14.7,43.8l-1.6,1.1c2,3,4.8,5.4,7.9,7.1l0.9-1.7C19.1,48.8,16.6,46.5,14.7,43.8z"></path> <path class="st0" d="M43.8,55.9l0.8,1.7c6.2-3.1,11.1-8.3,13.8-14.8l-1.8-0.7C54.2,48.1,49.6,53,43.8,55.9z"></path> <path class="st0" d="M40.3,57.3l0.6,1.8c0.7-0.2,1.3-0.5,2-0.7l-0.7-1.8C41.5,56.9,40.9,57.1,40.3,57.3z"></path> <path class="st0" d="M52.1,42.9L50.4,42c-1.8,3.2-4.3,5.9-7.5,7.9l1,1.6C47.3,49.4,50.1,46.4,52.1,42.9z"></path> </g> </g> </g> </svg> 